<svg version="1.1" id="图层_1" xmlns="http://www.w3.org/2000/svg" xmlns:xlink="http://www.w3.org/1999/xlink" x="0px" y="0px"
	 viewBox="0 0 635.6 380" style="enable-background:new 0 0 635.6 380;" xml:space="preserve">
<g>
	 <path fill="#888" d="M635.6,55C611.8,94,588,133,564.1,172c-1.7,2.7-3.6,5.3-5.5,7.7c-9.1,11.4-21,12.3-29,0.3c-19.6-29.3-38.3-59.2-57.1-89
		c-4.5-7.2-1.6-13.9,5.3-18c7.6-4.6,13.7-1.2,17.9,5.4c13.3,20.8,26.4,41.7,39.5,62.6c2.4,3.8,4.9,7.6,8.2,12.7
		c2.4-3.2,4.4-5.4,6-7.9c18.1-28.6,36-57.3,54.1-85.9c4.3-6.7,6-13.6,2.1-20.9c-4.1-7.6-11-10-19.5-10c-58,0.1-116,0.1-173.9-0.1
		c-9.1,0-16.8,1.8-21.3,10.6c-4.4,8.4-1,15.5,3.5,22.6c30.9,48.8,61.6,97.8,92.5,146.7c10,15.8,17.8,32.5,15.7,51.5
		c-2.4,22.3-15.7,36.9-37.3,42.3c-21,5.3-40.7,0.7-54.6-16.5c-12.3-15.3-22.5-32.4-33.2-49C336.8,174,296.4,110.7,255.8,47.5
		c-2.1-3.3-4.3-6.5-6.8-9.5c-10.6-12.6-26-14.9-38.7-5.8c-11.8,8.5-15,24.3-6.7,37.7c12.6,20.4,25.7,40.4,38.7,60.6
		c44,68.5,88.2,136.9,132.1,205.5c7.2,11.3,16.1,19.2,30.1,17.3c14.2-2,22.2-11.2,24.6-25.2c8,0.8,15.9,1.5,26,2.5
		c-1.9,6.1-2.9,13.3-6.1,19.4c-19.7,37.7-70.7,39.6-94,3.7c-30.1-46.4-59.9-93.1-89.8-139.7c-26.1-40.6-50.7-82.3-78.7-121.6
		c-27.4-38.5-7.7-84.9,31.5-91.1c0.6-0.1,1.2-0.8,1.7-1.2c5.7,0,11.3,0,17,0c12.2,5.1,25.5,8.6,33.3,20.8
		c36.1,56.4,72.3,112.7,108.5,169.1c16.6,25.8,33.1,51.6,50,77.2c6.9,10.4,18,14.5,28.3,11.9c11.8-3,21.3-11.9,21-23.4
		c-0.2-8.2-3.6-17.2-8-24.3c-28.2-45.2-57.2-89.7-85.5-134.9c-7.6-12.1-15.2-24.9-19.5-38.4c-8.9-28,11.4-55.1,40.7-55.3
		c61.5-0.5,123-0.4,184.5-0.2c19.7,0.1,33,10.7,41,28.3c1.4,3.1,2.9,6.3,4.3,9.4C635.6,45.2,635.6,50.1,635.6,55z"/>
	<path fill="#888" d="M283.6,326.8c-2.9,24.4-17.6,44.1-39.6,50.7c-23.1,7-47.2-0.8-60.4-21.1c-42.6-65.6-84.8-131.5-127.1-197.3
		c-16.4-25.5-33.5-50.6-48.9-76.6C-9.2,53.9,2.8,19.3,32.6,6.4C56.5-3.9,84.7,4.7,98.8,26.5c57.8,89.8,115.8,179.4,173.2,269.4
		C277.7,305,279.8,316.4,283.6,326.8z M224.8,354.2c15,0,25.8-8,29.6-19.2c3.5-10.4-0.1-19.1-5.7-27.8
		C197.7,228.1,146.9,148.9,96,69.8c-6.5-10.1-12.5-20.5-19.6-30.1c-9.3-12.7-25.2-15.4-37.4-7.2c-12.8,8.5-16.5,23.5-9.2,37.1
		c2.3,4.3,5.1,8.4,7.8,12.6c26.7,41.5,53.3,83,80,124.5c28.6,44.5,57.3,88.8,85.9,133.3C209.3,348.9,217.1,353.9,224.8,354.2z"/>
</g>
</svg>
